<svg xmlns="http://www.w3.org/2000/svg" width="271.435" height="37.572" viewBox="0 0 271.435 37.572">
  <g id="Group_1" data-name="Group 1" transform="translate(-156 -351.2)">
    <path id="icon-star" d="M39.4,14.392a.708.708,0,0,0-.572-.481L26.06,12.055,20.349.487a.705.705,0,0,0-1.263,0L13.372,12.057.6,13.913a.708.708,0,0,0-.393,1.2l9.243,9L7.269,36.842a.708.708,0,0,0,1.024.743l11.423-6,11.42,6a.705.705,0,0,0,1.024-.746L29.978,24.123l9.243-9.01a.712.712,0,0,0,.179-.724Z" transform="translate(156 351.104)" fill="#ef9546"/>
    <path id="icon-star-2" data-name="icon-star" d="M39.4,14.392a.708.708,0,0,0-.572-.481L26.06,12.055,20.349.487a.705.705,0,0,0-1.263,0L13.372,12.057.6,13.913a.708.708,0,0,0-.393,1.2l9.243,9L7.269,36.842a.708.708,0,0,0,1.024.743l11.423-6,11.42,6a.705.705,0,0,0,1.024-.746L29.978,24.123l9.243-9.01a.712.712,0,0,0,.179-.724Z" transform="translate(214 351.104)" fill="#ef9546"/>
    <path id="icon-star-3" data-name="icon-star" d="M39.4,14.392a.708.708,0,0,0-.572-.481L26.06,12.055,20.349.487a.705.705,0,0,0-1.263,0L13.372,12.057.6,13.913a.708.708,0,0,0-.393,1.2l9.243,9L7.269,36.842a.708.708,0,0,0,1.024.743l11.423-6,11.42,6a.705.705,0,0,0,1.024-.746L29.978,24.123l9.243-9.01a.712.712,0,0,0,.179-.724Z" transform="translate(272 351.104)" fill="#ef9546"/>
    <path id="icon-star-4" data-name="icon-star" d="M39.4,14.392a.708.708,0,0,0-.572-.481L26.06,12.055,20.349.487a.705.705,0,0,0-1.263,0L13.372,12.057.6,13.913a.708.708,0,0,0-.393,1.2l9.243,9L7.269,36.842a.708.708,0,0,0,1.024.743l11.423-6,11.42,6a.705.705,0,0,0,1.024-.746L29.978,24.123l9.243-9.01a.712.712,0,0,0,.179-.724Z" transform="translate(330 351.104)" fill="#ef9546"/>
    <path id="icon-star-5" data-name="icon-star" d="M39.4,14.392a.708.708,0,0,0-.572-.481L26.06,12.055,20.349.487a.705.705,0,0,0-1.263,0L13.372,12.057.6,13.913a.708.708,0,0,0-.393,1.2l9.243,9L7.269,36.842a.708.708,0,0,0,1.024.743l11.423-6,11.42,6a.705.705,0,0,0,1.024-.746L29.978,24.123l9.243-9.01a.712.712,0,0,0,.179-.724Z" transform="translate(388 351.104)" fill="#ef9546"/>
  </g>
</svg>
